# xmcd
#
# Track frame offsets: 
#        150
#        4980
#        15106
#        26918
#        30855
#        37606
#        44357
#        49422
#        56450
#        64044
#        75290
#        85559
#        96808
#        104684
#        120015
#        127874
#        135765
#        143727
#        158461
#        169648
#        180907
#        193474
#        202479
#        206645
#        213974
#        221864
#        230771
#        246340
#        256740
#        263634
#        270948
#        276571
#        285500
#        293446
#        301741
#        313943
#        316164
#        323479
#        333655
#        344901
#
# Disc length: 4763 seconds
#
# Revision: 0
# Processed by: cddbd v1.5.2PL0 Copyright (c) Steve Scherf et al.
# Submitted via: ExactAudioCopyFreeDBPlugin 1.0
#
DISCID=2b129928
DTITLE=DJ RINA - PARTY HITS R&B GIRLS STYLE　～Blooming Garden～
DYEAR=2012
DGENRE=R&B
TTITLE0=Intro
TTITLE1=We Found Love
TTITLE2=Part Of Me
TTITLE3=Call Me Maybe
TTITLE4=You Make Me Feel
TTITLE5=Scream
TTITLE6=Dance Again
TTITLE7=Back In Time
TTITLE8=International Love
TTITLE9=Turn Up The Music
TTITLE10=Turn Me On
TTITLE11=Take Over Control
TTITLE12=Good Feeling
TTITLE13=Wild Ones
TTITLE14=Girl Gone Wild
TTITLE15=You And I
TTITLE16=The Edge Of Glory
TTITLE17=Laserlight
TTITLE18=Feel So Close
TTITLE19=Let's Go
TTITLE20=Where Have You Been
TTITLE21=In The Dark
TTITLE22=Mr.Saxobeat
TTITLE23=Live My Life
TTITLE24=Like A G6
TTITLE25=Sexy And I Know It
TTITLE26=Sorry For Party Rocking
TTITLE27=We Run The Night
TTITLE28=Starships
TTITLE29=Domino
TTITLE30=The One That Got Away
TTITLE31=Boyfriend
TTITLE32=Payphone
TTITLE33=Glad You Came
TTITLE34=Right There
TTITLE35=You Da One
TTITLE36=Young, Wild and Free
TTITLE37=What Makes You Beautiful
TTITLE38=One Thing
TTITLE39=Titanium
EXTD=
EXTT0=
EXTT1=
EXTT2=
EXTT3=
EXTT4=
EXTT5=
EXTT6=
EXTT7=
EXTT8=
EXTT9=
EXTT10=
EXTT11=
EXTT12=
EXTT13=
EXTT14=
EXTT15=
EXTT16=
EXTT17=
EXTT18=
EXTT19=
EXTT20=
EXTT21=
EXTT22=
EXTT23=
EXTT24=
EXTT25=
EXTT26=
EXTT27=
EXTT28=
EXTT29=
EXTT30=
EXTT31=
EXTT32=
EXTT33=
EXTT34=
EXTT35=
EXTT36=
EXTT37=
EXTT38=
EXTT39=
PLAYORDER=
